<svg width="160" height="36" viewBox="0 0 160 36" fill="none" xmlns="http://www.w3.org/2000/svg">
<path d="M46.3768 21.9412H49.2444L51.8776 27.4875H52.112L54.7452 21.9412H57.6128V31.3245H55.7912V25.3073L55.9356 23.9818H55.7912L53.3204 29.1269H50.6873L48.2164 23.9818H48.0541L48.2164 25.3073V31.3245H46.3768V21.9412Z" fill="black"/>
<path d="M62.0135 21.7318H66.4503L69.2098 31.3245H67.334L66.6848 29.0048H61.7972L61.1479 31.3245H59.2722L62.0135 21.7318ZM66.1797 27.2432L65.1157 23.4934H63.3302L62.2661 27.2432H66.1797Z" fill="black"/>
<path d="M70.5804 21.7318H75.3959C77.6864 21.7318 79.2194 23.2666 79.2194 24.9235C79.2194 26.0049 78.6422 26.7374 78.0831 27.2083C77.7404 27.4874 77.3617 27.6967 76.9469 27.8711L79.1472 31.307H76.9469L74.9089 28.1153H72.4561V31.307H70.5804V21.7318ZM75.3959 26.3712C76.6403 26.3712 77.2715 25.7433 77.2715 24.941C77.2715 24.1387 76.6403 23.5108 75.3959 23.5108H72.4561V26.3886H75.3959V26.3712Z" fill="black"/>
<path d="M81.095 21.7318H82.9706V25.5689H84.8463L87.5336 21.7318H89.6437L86.3974 26.3712L89.8962 31.3245H87.696L84.9184 27.3304H82.9706V31.3245H81.095V21.7318Z" fill="black"/>
<path d="M91.1226 21.7318H98.4449V23.4934H92.9983V25.5689H97.471V27.3304H92.9983V29.5629H98.4449V31.3245H91.1226V21.7318Z" fill="black"/>
<path d="M99.1845 21.7318H108.058V23.4934H104.559V31.3245H102.683V23.4934H99.1845V21.7318Z" fill="black"/>
<path d="M111.25 21.7318H109.375V31.3245H111.25V21.7318Z" fill="black"/>
<path d="M113.523 21.7318H116.048L120.538 28.9176H120.701L120.538 27.6444V21.7318H122.414V31.3245H119.871L115.398 24.1212H115.236L115.398 25.4119V31.3245H113.523V21.7318Z" fill="black"/>
<path d="M129.664 21.418C131.738 21.418 133.019 22.29 133.794 23.1795C134.227 23.6853 134.57 24.2783 134.804 24.9411H132.929C132.748 24.5748 132.514 24.2609 132.225 23.9818C131.72 23.4935 130.909 23.0225 129.664 23.0225C127.716 23.0225 126.165 24.5574 126.165 26.5282C126.165 28.4991 127.716 30.0339 129.664 30.0339C130.963 30.0339 131.793 29.4758 132.297 28.9177C132.586 28.5863 132.821 28.22 133.001 27.8014H131.378V26.0399H136.265V27.8014H134.877C134.624 28.5165 134.281 29.1618 133.849 29.72C133.091 30.6967 131.774 31.6385 129.664 31.6385C126.562 31.6385 124.2 29.3188 124.2 26.5282C124.2 23.7377 126.562 21.418 129.664 21.418Z" fill="black"/>
<path d="M81.4016 13.43C81.5098 13.7963 81.6901 14.1277 81.9606 14.4067C82.4476 14.8951 83.2232 15.366 84.648 15.366C86.7401 15.366 87.5877 14.5462 87.5877 13.7439C87.5877 12.4533 85.5497 12.1394 83.4936 11.7208C81.4376 11.3022 79.3996 10.465 79.3996 8.16277C79.3996 6.2268 81.1852 4.51758 84.5397 4.51758C86.8843 4.51758 88.255 5.42452 89.0305 6.3489C89.4995 6.88958 89.8061 7.50002 90.0044 8.18022H87.4795C87.3713 7.91861 87.209 7.65698 86.9565 7.43025C86.5417 7.04654 85.8022 6.66283 84.5397 6.66283C82.628 6.66283 81.9246 7.27327 81.9246 8.07556C81.9246 8.9825 83.0788 9.41854 84.5036 9.6976C86.9204 10.1685 90.1127 10.7266 90.1127 13.6567C90.1127 15.6799 88.237 17.5113 84.648 17.5113C81.9787 17.5113 80.4998 16.5171 79.6882 15.4881C79.2193 14.8951 78.9127 14.2149 78.7684 13.4649H81.4016V13.43Z" fill="black"/>
<path d="M90.744 4.90125H102.178V7.13372H97.6695V17.0926H95.2528V7.13372H90.744V4.90125Z" fill="black"/>
<path d="M110.781 11.9126L109.411 7.15116H107.102L105.732 11.9126H110.781ZM105.407 4.90125H111.124L114.677 17.0752H112.26L111.413 14.1276H105.118L104.271 17.0752H101.854L105.407 4.90125Z" fill="black"/>
<path d="M114.352 4.90125H125.787V7.13372H121.278V17.0926H118.861V7.13372H114.352V4.90125Z" fill="black"/>
<path d="M129.881 4.90125H127.464V17.0752H129.881V4.90125Z" fill="black"/>
<path d="M139.223 15.2612C141.838 15.2612 143.732 13.4299 143.732 11.0056C143.732 8.5638 141.838 6.74992 139.223 6.74992C136.608 6.74992 134.714 8.58124 134.714 11.0056C134.714 13.4299 136.608 15.2612 139.223 15.2612ZM139.223 4.5C143.317 4.5 146.257 7.34292 146.257 10.9881C146.257 14.6333 143.317 17.4762 139.223 17.4762C135.129 17.4762 132.189 14.6333 132.189 10.9881C132.189 7.34292 135.129 4.5 139.223 4.5Z" fill="black"/>
<path d="M148.565 4.90125H151.812L157.583 14.0404H157.8L157.583 12.4184V4.90125H160V17.0926H156.754L150.982 7.95345H150.766L150.982 9.57549V17.0926H148.565V4.90125Z" fill="black"/>
<path d="M53.2123 10.6393H50.3987V7.69174H53.2123C54.1862 7.69174 54.9256 8.31963 54.9256 9.15681C54.9256 9.99399 54.2042 10.6393 53.2123 10.6393ZM56.6931 12.9067C57.108 12.7148 57.5047 12.4357 57.8474 12.0695C58.641 11.2846 59.0378 10.3079 59.0378 9.17425C59.0378 6.41854 56.8013 4.5 53.6091 4.5H46.3949V17.4937H50.3987V13.7438H52.8515L55.0339 17.4937H59.0738L56.4586 13.0113L56.6931 12.9067Z" fill="black"/>
<path d="M65.0975 14.1973V7.79639H66.6125C68.7227 7.79639 70.0212 9.01728 70.0212 10.9881C70.0212 12.959 68.7227 14.1799 66.6125 14.1799H65.0975V14.1973ZM74.2234 10.9881C74.2234 7.22084 71.0672 4.5 66.7207 4.5H61.0937V17.4937H66.7207C71.0672 17.4937 74.2234 14.7554 74.2234 10.9881Z" fill="black"/>
<path d="M18.5435 26.1179L37.1014 32.7809V26.8067L18.5435 20.1437L0 26.8067V32.7809L18.5435 26.1179Z" fill="black"/>
<path d="M18.5435 26.1179L0 32.7809L6.88301 36L18.5435 31.811L30.2184 36L37.1014 32.7809L18.5435 26.1179Z" fill="#19C1CE"/>
<path d="M18.5435 9.88219L0 3.21912V9.19334L18.5435 15.8564L37.1014 9.19334V3.21912L18.5435 9.88219Z" fill="black"/>
<path d="M18.5435 9.88212L37.1014 3.21904L30.2184 0L18.5435 4.18903L6.88301 0L0 3.21904L18.5435 9.88212Z" fill="#19C1CE"/>
</svg>
